<?xml version="1.0" encoding="UTF-8"?>
<!-- Created with Inkscape (http://www.inkscape.org/) -->
<svg width="64" height="64" version="1.1" viewBox="0 0 16.933 16.933" xmlns="http://www.w3.org/2000/svg">
 <defs>
  <style>.cls-1{fill:#ccc;}</style>
 </defs>
 <path class="cls-1" d="m0.26696 9.0225 9.8824 7.7631a0.70909 0.70909 0 0 0 1.143-0.55828v-2.9767l4.5007 3.5349a0.71968 0.71968 0 0 0 0.74878 0.0767 0.71703 0.71703 0 0 0 0.39424-0.63501v-15.523a0.71968 0.71968 0 0 0-0.39424-0.63501 0.72497 0.72497 0 0 0-0.31222-0.0688 0.7038 0.7038 0 0 0-0.43657 0.14816l-4.498 3.5349v-2.9793a0.71703 0.71703 0 0 0-0.39689-0.63501 0.7038 0.7038 0 0 0-0.31222-0.0688 0.69586 0.69586 0 0 0-0.43657 0.14816l-9.8824 7.7604a0.71439 0.71439 0 0 0 0 1.1139zm15.259-6.8634v12.615l-4.2334-3.3233-1.4129-1.1086-2.3812-1.8759 2.3812-1.8785zm-5.6463 0v2.63l-3.9688 3.1195a0.70909 0.70909 0 0 0 0 1.1139l3.9688 3.1195v2.6327l-8.025-6.3078z" stroke-width=".26458"/>
</svg>
