<?xml version="1.0" encoding="UTF-8"?>
<!-- Created with Inkscape (http://www.inkscape.org/) -->
<svg width="64" height="64" version="1.1" viewBox="0 0 16.933 16.933" xmlns="http://www.w3.org/2000/svg">
 <g transform="matrix(.86837 0 0 .86838 -1.9538 -1.9539)">
  <path d="m12.554 16.506c-0.1421 0.1554-0.3429 0.2439-0.5535 0.2439s-0.4114-0.0885-0.5535-0.2439l-4-4.375c-0.2795-0.3057-0.25826-0.7801 0.04744-1.0596 0.30571-0.2795 0.7801-0.2583 1.0596 0.0474l2.6965 2.9493v-11.068c0-0.41421 0.3358-0.75 0.75-0.75s0.75 0.33579 0.75 0.75v11.068l2.6965-2.9493c0.2795-0.3057 0.7539-0.3269 1.0596-0.0474s0.3269 0.7539 0.0474 1.0596z"/>
  <path d="m3.75 15c0-0.4142-0.33578-0.75-0.75-0.75-0.41421 0-0.75 0.3358-0.75 0.75v0.0549c-2e-5 1.3676-4e-5 2.4699 0.11652 3.3369 0.12102 0.9001 0.37991 1.6579 0.98183 2.2598 0.60192 0.602 1.3598 0.8609 2.2599 0.9819 0.86697 0.1165 1.9693 0.1165 3.3369 0.1165h6.1098c1.3676 0 2.4699 0 3.3369-0.1165 0.9001-0.121 1.6579-0.3799 2.2599-0.9819 0.6019-0.6019 0.8608-1.3597 0.9818-2.2598 0.1165-0.867 0.1165-1.9693 0.1165-3.3369v-0.0549c0-0.4142-0.3358-0.75-0.75-0.75s-0.75 0.3358-0.75 0.75c0 1.4354-0.0016 2.4365-0.1031 3.1919-0.0987 0.7338-0.2791 1.1223-0.5559 1.3991s-0.6653 0.4572-1.3991 0.5559c-0.7554 0.1015-1.7565 0.1031-3.1919 0.1031h-6c-1.4354 0-2.4365-0.0016-3.1919-0.1031-0.73377-0.0987-1.1224-0.2791-1.3991-0.5559s-0.45721-0.6653-0.55586-1.3991c-0.10156-0.7554-0.10315-1.7565-0.10315-3.1919z"/>
 </g>
</svg>
