<?xml version="1.0" encoding="UTF-8"?>
<!-- Created with Inkscape (http://www.inkscape.org/) -->
<svg width="64" height="64" version="1.1" viewBox="0 0 16.933 16.933" xmlns="http://www.w3.org/2000/svg">
 <g transform="matrix(.84667 0 0 .7876 -1.6933 -.9845)" fill="none">
  <g stroke-width="112.5">
   <path class="first-flip" d="m21.895 5.83v12.227c0 1.7021 0 2.5532-0.5424 2.8324-0.5424 0.2791-1.235-0.2156-2.6201-1.2049l-1.5812-1.1295c-0.6159-0.4399-0.9238-0.6598-1.09-0.9829-0.1663-0.323-0.1663-0.7015-0.1663-1.4583v-8.3409c0-0.75683 0-1.1352 0.1662-1.4583 0.1663-0.32305 0.4742-0.543 1.0901-0.9829l1.5812-1.1295c1.3851-0.98935 2.0777-1.484 2.6201-1.2049 0.5424 0.27914 0.5424 1.1302 0.5424 2.8324z" fill="#000"/>
   <path class="second-flip" d="m2.1581 6.0566v12.227c0 1.7021 0 2.5532 0.54242 2.8324 0.54242 0.2791 1.235-0.2156 2.6201-1.2049l1.5812-1.1295c0.61585-0.4399 0.92378-0.6598 1.09-0.9829 0.16625-0.323 0.16625-0.7015 0.16625-1.4583v-8.3409c0-0.75683 0-1.1352-0.16625-1.4583s-0.47418-0.543-1.09-0.9829l-1.5812-1.1295c-1.3851-0.98935-2.0776-1.484-2.6201-1.2049-0.54242 0.27913-0.54242 1.1302-0.54242 2.8324z" fill="#333"/>
  </g>
  <path d="m12 22.75c-0.4142 0-0.75-0.3358-0.75-0.75v-4c0-0.4142 0.3358-0.75 0.75-0.75s0.75 0.3358 0.75 0.75v4c0 0.4142-0.3358 0.75-0.75 0.75zm0-8c-0.4142 0-0.75-0.3358-0.75-0.75v-4c0-0.41421 0.3358-0.75 0.75-0.75s0.75 0.33579 0.75 0.75v4c0 0.4142-0.3358 0.75-0.75 0.75zm0-8c-0.4142 0-0.75-0.33579-0.75-0.75v-4c0-0.41421 0.3358-0.75 0.75-0.75s0.75 0.33579 0.75 0.75v4c0 0.41421-0.3358 0.75-0.75 0.75z" clip-rule="evenodd" fill="#1c274c" fill-rule="evenodd" stroke-width="34.858"/>
 </g>
</svg>
