<?xml version="1.0" encoding="UTF-8"?>
<!-- Created with Inkscape (http://www.inkscape.org/) -->
<svg width="64" height="64" version="1.1" viewBox="0 0 16.933 16.933" xmlns="http://www.w3.org/2000/svg">
 <defs>
  <style>.cls-1{fill:#ccc;}</style>
 </defs>
 <path class="cls-1" d="m16.669 7.9111-9.8822-7.7629a0.70908 0.70908 0 0 0-1.143 0.55827v2.9766l-4.5006-3.5348a0.71967 0.71967 0 0 0-0.74877-0.0767 0.71702 0.71702 0 0 0-0.39423 0.635v15.523a0.71967 0.71967 0 0 0 0.39423 0.635 0.72496 0.72496 0 0 0 0.31221 0.0688 0.70379 0.70379 0 0 0 0.43656-0.14816l4.4979-3.5348v2.9792a0.71702 0.71702 0 0 0 0.39688 0.635 0.70379 0.70379 0 0 0 0.31221 0.0688 0.69585 0.69585 0 0 0 0.43656-0.14816l9.8822-7.7602a0.71438 0.71438 0 0 0 0-1.1139zm-15.259 6.8633v-12.615l4.2333 3.3232 1.4129 1.1086 2.3812 1.8759-2.3812 1.8785zm5.6462 0v-2.63l3.9687-3.1194a0.70908 0.70908 0 0 0 0-1.1139l-3.9687-3.1194v-2.6326l8.0248 6.3077z" stroke-width=".26458"/>
</svg>
