<?xml version="1.0" encoding="UTF-8"?>
<!-- Created with Inkscape (http://www.inkscape.org/) -->
<svg width="64" height="64" version="1.1" viewBox="0 0 16.933 16.933" xmlns="http://www.w3.org/2000/svg">
 <defs>
  <style>.cls-1{fill:#ccc;}</style>
 </defs>
 <g id="_07.NEXT" transform="matrix(-.56444 0 0 .55881 17.692 -1.3892)" stroke-width=".47111" data-name="07.NEXT">
  <path class="cls-1" d="m26.999 16.683-24.317-14.046a1.1216 1.1228 0 0 0-1.6824 0.96561v28.07a1.1216 1.1228 0 0 0 1.6824 0.96561l24.317-14.001a1.1216 1.1228 0 0 0 0-1.9537zm-23.756 13.081v-24.208l20.952 12.104z"/>
  <path class="cls-1" d="m30.172 3.433a1.1719 1.3152 0 0 0-1.1719 1.3152v25.778a1.1719 1.3152 0 0 0 2.3438 0v-25.778a1.1719 1.3152 0 0 0-1.1719-1.3152z"/>
 </g>
</svg>
